<?xml version="1.0" standalone="no"?>
<!DOCTYPE svg PUBLIC "-//W3C//DTD SVG 20010904//EN"
 "http://www.w3.org/TR/2001/REC-SVG-20010904/DTD/svg10.dtd">
<svg version="1.0" xmlns="http://www.w3.org/2000/svg"
 width="980.000000pt" height="980.000000pt" viewBox="0 0 980.000000 980.000000"
 preserveAspectRatio="xMidYMid meet">

<g transform="translate(0.000000,980.000000) scale(0.100000,-0.100000)"
fill="#000000" stroke="none">
<path d="M5720 8019 c-646 -74 -1137 -429 -1449 -1048 -112 -222 -189 -451
-231 -684 -26 -141 -25 -160 4 -194 21 -24 31 -28 78 -28 65 1 111 29 127 78
6 17 20 79 31 137 12 58 46 179 76 269 174 523 478 903 868 1087 669 314 1597
153 2119 -369 198 -198 337 -464 383 -731 22 -129 15 -369 -14 -501 -44 -196
-125 -408 -238 -624 -93 -176 -121 -224 -344 -581 -240 -385 -288 -469 -340
-589 -82 -189 -127 -370 -200 -801 -73 -434 -120 -619 -203 -808 -135 -305
-317 -481 -583 -566 -125 -40 -199 -50 -354 -49 -321 1 -608 110 -822 311
-179 168 -307 413 -363 692 -9 47 -23 95 -31 108 -47 73 -178 37 -204 -56 -12
-46 26 -225 77 -357 156 -406 512 -744 928 -880 288 -94 647 -84 926 27 258
103 442 270 568 518 109 214 158 396 241 888 125 746 174 864 659 1597 102
154 215 333 249 397 149 276 238 533 278 808 22 155 15 432 -15 571 -73 338
-246 633 -505 861 -315 276 -732 456 -1196 514 -123 15 -398 17 -520 3z"/>
<path d="M5860 7359 c-478 -47 -845 -332 -1024 -794 -98 -254 -84 -438 41
-562 59 -59 132 -99 288 -156 66 -24 140 -54 165 -67 146 -74 318 -234 407
-379 93 -150 154 -395 139 -558 -10 -104 -40 -215 -85 -310 -155 -323 -520
-574 -961 -659 -76 -14 -101 -23 -122 -45 -76 -75 16 -209 132 -193 102 14
313 74 428 122 344 142 604 371 732 645 87 184 122 393 102 592 -49 468 -309
831 -737 1031 -257 119 -281 133 -323 178 -36 39 -42 52 -42 89 0 54 23 121
87 258 140 296 346 477 628 552 108 29 349 30 475 3 538 -116 900 -559 900
-1100 0 -138 -22 -234 -84 -361 -54 -113 -119 -208 -296 -432 -186 -235 -306
-415 -395 -594 -107 -218 -168 -425 -181 -624 -6 -82 -5 -92 15 -117 31 -39
85 -53 135 -36 59 20 74 48 86 166 36 338 162 587 565 1117 223 294 320 460
367 631 31 114 31 364 -1 514 -90 429 -335 766 -682 940 -232 117 -517 173
-759 149z"/>
<path d="M3190 6625 c-8 -2 -222 -36 -475 -75 -253 -39 -473 -76 -489 -82 -34
-14 -66 -62 -66 -102 0 -15 65 -241 145 -501 80 -260 145 -474 145 -477 0 -2
-46 -3 -102 -3 -118 0 -174 -13 -271 -63 -81 -42 -172 -135 -213 -219 -27 -53
-29 -67 -29 -168 0 -103 2 -114 31 -175 39 -82 96 -145 168 -189 160 -96 340
-104 512 -22 219 104 322 331 245 542 -11 30 -67 212 -126 404 -59 193 -114
374 -123 402 -8 29 -14 55 -11 57 3 3 634 105 738 119 9 1 43 -73 102 -223 48
-124 88 -229 89 -235 0 -6 -30 -9 -78 -7 -146 6 -284 -48 -387 -152 -292 -292
-73 -741 360 -739 200 1 377 110 459 283 39 84 48 208 21 291 -10 30 -115 304
-233 609 -117 305 -223 580 -233 611 -26 74 -64 110 -121 114 -24 2 -50 2 -58
0z m-10 -281 c7 -19 10 -38 7 -41 -7 -6 -672 -112 -707 -113 -21 0 -29 7 -39
36 -7 19 -11 37 -9 39 4 4 685 113 715 114 16 1 24 -8 33 -35z m318 -1001 c64
-30 108 -86 118 -149 5 -36 1 -54 -21 -100 -72 -146 -287 -190 -423 -86 -112
85 -89 249 44 324 92 51 189 55 282 11z m-1033 -220 c101 -53 142 -160 96
-252 -62 -121 -238 -177 -366 -117 -156 73 -177 231 -45 336 60 47 104 60 195
57 57 -3 92 -10 120 -24z"/>
<path d="M4509 5542 c-34 -30 -18 32 -185 -732 -42 -190 -78 -347 -80 -349 -2
-2 -24 10 -49 28 -273 196 -640 126 -768 -147 -60 -128 -46 -301 33 -426 99
-155 285 -256 472 -256 228 0 411 135 457 335 6 28 54 253 108 500 53 248 99
453 102 456 3 4 138 -49 300 -117 162 -68 304 -124 315 -124 28 0 82 34 96 60
11 20 23 88 54 298 18 116 10 161 -34 193 -22 17 -147 70 -602 260 -136 57
-174 61 -219 21z m436 -366 l180 -75 -3 -48 c-2 -26 -5 -49 -7 -51 -3 -4 -430
173 -454 187 -9 6 -10 18 0 54 l11 46 47 -19 c25 -10 127 -52 226 -94z m-1012
-821 c249 -65 317 -344 107 -438 -132 -60 -323 13 -393 150 -64 122 6 258 149
292 57 13 73 13 137 -4z"/>
</g>
</svg>
